<?plantuml 1.2026.2?><svg xmlns="http://www.w3.org/2000/svg" xmlns:xlink="http://www.w3.org/1999/xlink" contentStyleType="text/css" data-diagram-type="SEQUENCE" height="949px" preserveAspectRatio="none" style="width:1026px;height:949px;background:#FFFFFF;" version="1.1" viewBox="0 0 1026 949" width="1026px" zoomAndPan="magnify"><title>Sequence &#8212; Cold-start location (FR-U4)</title><defs/><g><text fill="#000000" font-family="Verdana" font-size="22" font-weight="bold" lengthAdjust="spacing" textLength="492.4971" x="270.6721" y="37.1182">Sequence &#8212; Cold-start location (FR-U4)</text><g class="participant-lifeline" data-entity-uid="part1" data-qualified-name="Client" id="part1-lifeline"><g><title>Client</title><rect fill="#000000" fill-opacity="0.00000" height="736.9829" width="8" x="29.0874" y="130.752"/><line style="stroke:#000000;stroke-width:1;stroke-dasharray:5,5;" x1="33" x2="33" y1="130.752" y2="867.7349"/></g></g><g class="participant-lifeline" data-entity-uid="part2" data-qualified-name="GQL" id="part2-lifeline"><g><title>GraphQL</title><rect fill="#000000" fill-opacity="0.00000" height="736.9829" width="8" x="245.4404" y="130.752"/><line style="stroke:#000000;stroke-width:1;stroke-dasharray:5,5;" x1="248.624" x2="248.624" y1="130.752" y2="867.7349"/></g></g><g class="participant-lifeline" data-entity-uid="part3" data-qualified-name="Geo" id="part3-lifeline"><g><title>Geocoding</title><rect fill="#000000" fill-opacity="0.00000" height="736.9829" width="8" x="364.6299" y="130.752"/><line style="stroke:#000000;stroke-width:1;stroke-dasharray:5,5;" x1="367.8149" x2="367.8149" y1="130.752" y2="867.7349"/></g></g><g class="participant-lifeline" data-entity-uid="part4" data-qualified-name="Store" id="part4-lifeline"><g><title>Store</title><rect fill="#000000" fill-opacity="0.00000" height="736.9829" width="8" x="559.5786" y="130.752"/><line style="stroke:#000000;stroke-width:1;stroke-dasharray:5,5;" x1="562.6294" x2="562.6294" y1="130.752" y2="867.7349"/></g></g><g class="participant-lifeline" data-entity-uid="part5" data-qualified-name="OMClient" id="part5-lifeline"><g><title>Open-Meteo</title><rect fill="#000000" fill-opacity="0.00000" height="736.9829" width="8" x="665.4233" y="130.752"/><line style="stroke:#000000;stroke-width:1;stroke-dasharray:5,5;" x1="668.5278" x2="668.5278" y1="130.752" y2="867.7349"/></g></g><g class="participant-lifeline" data-entity-uid="part6" data-qualified-name="OM" id="part6-lifeline"><g><title>Open-Meteo</title><rect fill="#000000" fill-opacity="0.00000" height="736.9829" width="8" x="795.2144" y="130.752"/><line style="stroke:#000000;stroke-width:1;stroke-dasharray:5,5;" x1="798.3188" x2="798.3188" y1="130.752" y2="867.7349"/></g></g><g class="participant-lifeline" data-entity-uid="part7" data-qualified-name="Score" id="part7-lifeline"><g><title>Scorer</title><rect fill="#000000" fill-opacity="0.00000" height="736.9829" width="8" x="904.9351" y="130.752"/><line style="stroke:#000000;stroke-width:1;stroke-dasharray:5,5;" x1="908.1099" x2="908.1099" y1="130.752" y2="867.7349"/></g></g><g class="participant-lifeline" data-entity-uid="part8" data-qualified-name="PG" id="part8-lifeline"><g><title>Postgres</title><rect fill="#000000" fill-opacity="0.00000" height="736.9829" width="8" x="987.8008" y="130.752"/><line style="stroke:#000000;stroke-width:1;stroke-dasharray:5,5;" x1="991.7603" x2="991.7603" y1="130.752" y2="867.7349"/></g></g><g class="participant participant-head" data-entity-uid="part1" data-qualified-name="Client" id="part1-head"><text fill="#000000" font-family="Verdana" font-size="14" lengthAdjust="spacing" textLength="40.1748" x="10" y="127.8125">Client</text><ellipse cx="33.0874" cy="61.7373" fill="#FFFFFF" rx="8" ry="8" style="stroke:#000000;stroke-width:1;"/><path d="M33.0874,69.7373 L33.0874,96.7373 M20.0874,77.7373 L46.0874,77.7373 M33.0874,96.7373 L20.0874,111.7373 M33.0874,96.7373 L46.0874,111.7373" fill="none" style="stroke:#000000;stroke-width:1;"/></g><g class="participant participant-tail" data-entity-uid="part1" data-qualified-name="Client" id="part1-tail"><text fill="#000000" font-family="Verdana" font-size="14" lengthAdjust="spacing" textLength="40.1748" x="10" y="880.8101">Client</text><ellipse cx="33.0874" cy="892.7495" fill="#FFFFFF" rx="8" ry="8" style="stroke:#000000;stroke-width:1;"/><path d="M33.0874,900.7495 L33.0874,927.7495 M20.0874,908.7495 L46.0874,908.7495 M33.0874,927.7495 L20.0874,942.7495 M33.0874,927.7495 L46.0874,942.7495" fill="none" style="stroke:#000000;stroke-width:1;"/></g><g class="participant participant-head" data-entity-uid="part2" data-qualified-name="GQL" id="part2-head"><rect fill="#FFFFFF" height="48.0293" rx="2.5" ry="2.5" style="stroke:#000000;stroke-width:1;" width="75.6328" x="211.624" y="81.7227"/><text fill="#000000" font-family="Verdana" font-size="14" lengthAdjust="spacing" textLength="61.6328" x="218.624" y="102.7979">GraphQL</text><text fill="#000000" font-family="Verdana" font-size="14" lengthAdjust="spacing" textLength="23.9053" x="237.4878" y="119.8125">API</text></g><g class="participant participant-tail" data-entity-uid="part2" data-qualified-name="GQL" id="part2-tail"><rect fill="#FFFFFF" height="48.0293" rx="2.5" ry="2.5" style="stroke:#000000;stroke-width:1;" width="75.6328" x="211.624" y="866.7349"/><text fill="#000000" font-family="Verdana" font-size="14" lengthAdjust="spacing" textLength="61.6328" x="218.624" y="887.8101">GraphQL</text><text fill="#000000" font-family="Verdana" font-size="14" lengthAdjust="spacing" textLength="23.9053" x="237.4878" y="904.8247">API</text></g><g class="participant participant-head" data-entity-uid="part3" data-qualified-name="Geo" id="part3-head"><rect fill="#FFFFFF" height="31.0146" rx="2.5" ry="2.5" style="stroke:#000000;stroke-width:1;" width="87.6299" x="324.8149" y="98.7373"/><text fill="#000000" font-family="Verdana" font-size="14" lengthAdjust="spacing" textLength="73.6299" x="331.8149" y="119.8125">Geocoding</text></g><g class="participant participant-tail" data-entity-uid="part3" data-qualified-name="Geo" id="part3-tail"><rect fill="#FFFFFF" height="31.0146" rx="2.5" ry="2.5" style="stroke:#000000;stroke-width:1;" width="87.6299" x="324.8149" y="866.7349"/><text fill="#000000" font-family="Verdana" font-size="14" lengthAdjust="spacing" textLength="73.6299" x="331.8149" y="887.8101">Geocoding</text></g><g class="participant participant-head" data-entity-uid="part4" data-qualified-name="Store" id="part4-head"><rect fill="#FFFFFF" height="31.0146" rx="2.5" ry="2.5" style="stroke:#000000;stroke-width:1;" width="51.8984" x="537.6294" y="98.7373"/><text fill="#000000" font-family="Verdana" font-size="14" lengthAdjust="spacing" textLength="37.8984" x="544.6294" y="119.8125">Store</text></g><g class="participant participant-tail" data-entity-uid="part4" data-qualified-name="Store" id="part4-tail"><rect fill="#FFFFFF" height="31.0146" rx="2.5" ry="2.5" style="stroke:#000000;stroke-width:1;" width="51.8984" x="537.6294" y="866.7349"/><text fill="#000000" font-family="Verdana" font-size="14" lengthAdjust="spacing" textLength="37.8984" x="544.6294" y="887.8101">Store</text></g><g class="participant participant-head" data-entity-uid="part5" data-qualified-name="OMClient" id="part5-head"><rect fill="#FFFFFF" height="48.0293" rx="2.5" ry="2.5" style="stroke:#000000;stroke-width:1;" width="99.791" x="619.5278" y="81.7227"/><text fill="#000000" font-family="Verdana" font-size="14" lengthAdjust="spacing" textLength="85.791" x="626.5278" y="102.7979">Open-Meteo</text><text fill="#000000" font-family="Verdana" font-size="14" lengthAdjust="spacing" textLength="37.6934" x="650.5767" y="119.8125">client</text></g><g class="participant participant-tail" data-entity-uid="part5" data-qualified-name="OMClient" id="part5-tail"><rect fill="#FFFFFF" height="48.0293" rx="2.5" ry="2.5" style="stroke:#000000;stroke-width:1;" width="99.791" x="619.5278" y="866.7349"/><text fill="#000000" font-family="Verdana" font-size="14" lengthAdjust="spacing" textLength="85.791" x="626.5278" y="887.8101">Open-Meteo</text><text fill="#000000" font-family="Verdana" font-size="14" lengthAdjust="spacing" textLength="37.6934" x="650.5767" y="904.8247">client</text></g><g class="participant participant-head" data-entity-uid="part6" data-qualified-name="OM" id="part6-head"><rect fill="#FFFFFF" height="31.0146" rx="2.5" ry="2.5" style="stroke:#000000;stroke-width:1;" width="99.791" x="749.3188" y="98.7373"/><text fill="#000000" font-family="Verdana" font-size="14" lengthAdjust="spacing" textLength="85.791" x="756.3188" y="119.8125">Open-Meteo</text></g><g class="participant participant-tail" data-entity-uid="part6" data-qualified-name="OM" id="part6-tail"><rect fill="#FFFFFF" height="31.0146" rx="2.5" ry="2.5" style="stroke:#000000;stroke-width:1;" width="99.791" x="749.3188" y="866.7349"/><text fill="#000000" font-family="Verdana" font-size="14" lengthAdjust="spacing" textLength="85.791" x="756.3188" y="887.8101">Open-Meteo</text></g><g class="participant participant-head" data-entity-uid="part7" data-qualified-name="Score" id="part7-head"><rect fill="#FFFFFF" height="31.0146" rx="2.5" ry="2.5" style="stroke:#000000;stroke-width:1;" width="59.6504" x="879.1099" y="98.7373"/><text fill="#000000" font-family="Verdana" font-size="14" lengthAdjust="spacing" textLength="45.6504" x="886.1099" y="119.8125">Scorer</text></g><g class="participant participant-tail" data-entity-uid="part7" data-qualified-name="Score" id="part7-tail"><rect fill="#FFFFFF" height="31.0146" rx="2.5" ry="2.5" style="stroke:#000000;stroke-width:1;" width="59.6504" x="879.1099" y="866.7349"/><text fill="#000000" font-family="Verdana" font-size="14" lengthAdjust="spacing" textLength="45.6504" x="886.1099" y="887.8101">Scorer</text></g><g class="participant participant-head" data-entity-uid="part8" data-qualified-name="PG" id="part8-head"><text fill="#000000" font-family="Verdana" font-size="14" lengthAdjust="spacing" textLength="60.0811" x="958.7603" y="127.8125">Postgres</text><path d="M973.8008,77.7373 C973.8008,67.7373 991.8008,67.7373 991.8008,67.7373 C991.8008,67.7373 1009.8008,67.7373 1009.8008,77.7373 L1009.8008,103.7373 C1009.8008,113.7373 991.8008,113.7373 991.8008,113.7373 C991.8008,113.7373 973.8008,113.7373 973.8008,103.7373 L973.8008,77.7373" fill="#FFFFFF" style="stroke:#000000;stroke-width:1;"/><path d="M973.8008,77.7373 C973.8008,87.7373 991.8008,87.7373 991.8008,87.7373 C991.8008,87.7373 1009.8008,87.7373 1009.8008,77.7373" fill="none" style="stroke:#000000;stroke-width:1;"/></g><g class="participant participant-tail" data-entity-uid="part8" data-qualified-name="PG" id="part8-tail"><text fill="#000000" font-family="Verdana" font-size="14" lengthAdjust="spacing" textLength="60.0811" x="958.7603" y="880.8101">Postgres</text><path d="M973.8008,893.7495 C973.8008,883.7495 991.8008,883.7495 991.8008,883.7495 C991.8008,883.7495 1009.8008,883.7495 1009.8008,893.7495 L1009.8008,919.7495 C1009.8008,929.7495 991.8008,929.7495 991.8008,929.7495 C991.8008,929.7495 973.8008,929.7495 973.8008,919.7495 L973.8008,893.7495" fill="#FFFFFF" style="stroke:#000000;stroke-width:1;"/><path d="M973.8008,893.7495 C973.8008,903.7495 991.8008,903.7495 991.8008,903.7495 C991.8008,903.7495 1009.8008,903.7495 1009.8008,893.7495" fill="none" style="stroke:#000000;stroke-width:1;"/></g><g class="message" data-entity-1="part1" data-entity-2="part2" id="msg1"><polygon fill="#000000" points="237.4404,158.5513,247.4404,162.5513,237.4404,166.5513,241.4404,162.5513" style="stroke:#000000;stroke-width:1;"/><line style="stroke:#000000;stroke-width:1;" x1="33.0874" x2="243.4404" y1="162.5513" y2="162.5513"/><text fill="#000000" font-family="Verdana" font-size="13" lengthAdjust="spacing" textLength="190.1187" x="40.0874" y="157.8218">query activityRanking(name)</text></g><g class="message" data-entity-1="part2" data-entity-2="part3" id="msg2"><polygon fill="#000000" points="356.6299,188.3506,366.6299,192.3506,356.6299,196.3506,360.6299,192.3506" style="stroke:#000000;stroke-width:1;"/><line style="stroke:#000000;stroke-width:1;" x1="249.4404" x2="362.6299" y1="192.3506" y2="192.3506"/><text fill="#000000" font-family="Verdana" font-size="13" lengthAdjust="spacing" textLength="95.1895" x="256.4404" y="187.6211">resolve(name)</text></g><g class="message" data-entity-1="part3" data-entity-2="part4" id="msg3"><polygon fill="#000000" points="551.5786,218.1499,561.5786,222.1499,551.5786,226.1499,555.5786,222.1499" style="stroke:#000000;stroke-width:1;"/><line style="stroke:#000000;stroke-width:1;" x1="368.6299" x2="557.5786" y1="222.1499" y2="222.1499"/><text fill="#000000" font-family="Verdana" font-size="13" lengthAdjust="spacing" textLength="144.0728" x="375.6299" y="217.4204">geocode cache lookup</text></g><g class="message" data-entity-1="part4" data-entity-2="part8" id="msg4"><polygon fill="#000000" points="979.8008,247.9492,989.8008,251.9492,979.8008,255.9492,983.8008,251.9492" style="stroke:#000000;stroke-width:1;"/><line style="stroke:#000000;stroke-width:1;" x1="563.5786" x2="985.8008" y1="251.9492" y2="251.9492"/><text fill="#000000" font-family="Verdana" font-size="13" lengthAdjust="spacing" textLength="154.0513" x="570.5786" y="247.2197">SELECT geocode_cache</text></g><g class="message" data-entity-1="part8" data-entity-2="part4" id="msg5"><polygon fill="#000000" points="574.5786,277.7485,564.5786,281.7485,574.5786,285.7485,570.5786,281.7485" style="stroke:#000000;stroke-width:1;"/><line style="stroke:#000000;stroke-width:1;stroke-dasharray:2,2;" x1="568.5786" x2="990.8008" y1="281.7485" y2="281.7485"/><text fill="#000000" font-family="Verdana" font-size="13" lengthAdjust="spacing" textLength="29.7578" x="580.5786" y="277.019">miss</text></g><g class="message" data-entity-1="part3" data-entity-2="part5" id="msg6"><polygon fill="#000000" points="657.4233,307.5479,667.4233,311.5479,657.4233,315.5479,661.4233,311.5479" style="stroke:#000000;stroke-width:1;"/><line style="stroke:#000000;stroke-width:1;" x1="368.6299" x2="663.4233" y1="311.5479" y2="311.5479"/><text fill="#000000" font-family="Verdana" font-size="13" lengthAdjust="spacing" textLength="102.4702" x="375.6299" y="306.8184">geocode(name)</text></g><g class="message" data-entity-1="part5" data-entity-2="part6" id="msg7"><polygon fill="#000000" points="787.2144,337.3472,797.2144,341.3472,787.2144,345.3472,791.2144,341.3472" style="stroke:#000000;stroke-width:1;"/><line style="stroke:#000000;stroke-width:1;" x1="669.4233" x2="793.2144" y1="341.3472" y2="341.3472"/><text fill="#000000" font-family="Verdana" font-size="13" lengthAdjust="spacing" textLength="97.2715" x="676.4233" y="336.6177">GET geocoding</text></g><g class="message" data-entity-1="part6" data-entity-2="part5" id="msg8"><polygon fill="#000000" points="680.4233,367.1465,670.4233,371.1465,680.4233,375.1465,676.4233,371.1465" style="stroke:#000000;stroke-width:1;"/><line style="stroke:#000000;stroke-width:1;stroke-dasharray:2,2;" x1="674.4233" x2="798.2144" y1="371.1465" y2="371.1465"/><text fill="#000000" font-family="Verdana" font-size="13" lengthAdjust="spacing" textLength="70.021" x="686.4233" y="366.417">candidates</text></g><g class="message" data-entity-1="part5" data-entity-2="part3" id="msg9"><polygon fill="#000000" points="379.6299,396.9458,369.6299,400.9458,379.6299,404.9458,375.6299,400.9458" style="stroke:#000000;stroke-width:1;"/><line style="stroke:#000000;stroke-width:1;stroke-dasharray:2,2;" x1="373.6299" x2="668.4233" y1="400.9458" y2="400.9458"/><text fill="#000000" font-family="Verdana" font-size="13" lengthAdjust="spacing" textLength="124.2427" x="385.6299" y="396.2163">best + alternatives</text></g><g class="message" data-entity-1="part3" data-entity-2="part4" id="msg10"><polygon fill="#000000" points="551.5786,426.7451,561.5786,430.7451,551.5786,434.7451,555.5786,430.7451" style="stroke:#000000;stroke-width:1;"/><line style="stroke:#000000;stroke-width:1;" x1="368.6299" x2="557.5786" y1="430.7451" y2="430.7451"/><text fill="#000000" font-family="Verdana" font-size="13" lengthAdjust="spacing" textLength="170.9487" x="375.6299" y="426.0156">upsert geocode + location</text></g><g class="message" data-entity-1="part4" data-entity-2="part8" id="msg11"><polygon fill="#000000" points="979.8008,456.5444,989.8008,460.5444,979.8008,464.5444,983.8008,460.5444" style="stroke:#000000;stroke-width:1;"/><line style="stroke:#000000;stroke-width:1;" x1="563.5786" x2="985.8008" y1="460.5444" y2="460.5444"/><text fill="#000000" font-family="Verdana" font-size="13" lengthAdjust="spacing" textLength="51.5112" x="570.5786" y="455.8149">UPSERT</text></g><g class="message" data-entity-1="part2" data-entity-2="part4" id="msg12"><polygon fill="#000000" points="551.5786,486.3438,561.5786,490.3438,551.5786,494.3438,555.5786,490.3438" style="stroke:#000000;stroke-width:1;"/><line style="stroke:#000000;stroke-width:1;" x1="249.4404" x2="557.5786" y1="490.3438" y2="490.3438"/><text fill="#000000" font-family="Verdana" font-size="13" lengthAdjust="spacing" textLength="184.6089" x="256.4404" y="485.6143">getForecastDays(locationId)</text></g><g class="message" data-entity-1="part4" data-entity-2="part8" id="msg13"><polygon fill="#000000" points="979.8008,516.1431,989.8008,520.1431,979.8008,524.1431,983.8008,520.1431" style="stroke:#000000;stroke-width:1;"/><line style="stroke:#000000;stroke-width:1;" x1="563.5786" x2="985.8008" y1="520.1431" y2="520.1431"/><text fill="#000000" font-family="Verdana" font-size="13" lengthAdjust="spacing" textLength="49.6514" x="570.5786" y="515.4136">SELECT</text></g><g class="message" data-entity-1="part8" data-entity-2="part4" id="msg14"><polygon fill="#000000" points="574.5786,545.9424,564.5786,549.9424,574.5786,553.9424,570.5786,549.9424" style="stroke:#000000;stroke-width:1;"/><line style="stroke:#000000;stroke-width:1;stroke-dasharray:2,2;" x1="568.5786" x2="990.8008" y1="549.9424" y2="549.9424"/><text fill="#000000" font-family="Verdana" font-size="13" lengthAdjust="spacing" textLength="144.1807" x="580.5786" y="545.2129">miss (no forecast yet)</text></g><g class="message" data-entity-1="part2" data-entity-2="part5" id="msg15"><polygon fill="#000000" points="657.4233,591.541,667.4233,595.541,657.4233,599.541,661.4233,595.541" style="stroke:#000000;stroke-width:1;"/><line style="stroke:#000000;stroke-width:1;" x1="249.4404" x2="663.4233" y1="595.541" y2="595.541"/><text fill="#000000" font-family="Verdana" font-size="13" lengthAdjust="spacing" textLength="144.8535" x="256.4404" y="575.0122">fetchForecast(lat, lon)</text><text fill="#000000" font-family="Verdana" font-size="13" lengthAdjust="spacing" textLength="146.9038" x="256.4404" y="590.8115">[timeout budget &lt; 3s]</text></g><g class="message" data-entity-1="part5" data-entity-2="part6" id="msg16"><polygon fill="#000000" points="787.2144,621.3403,797.2144,625.3403,787.2144,629.3403,791.2144,625.3403" style="stroke:#000000;stroke-width:1;"/><line style="stroke:#000000;stroke-width:1;" x1="669.4233" x2="793.2144" y1="625.3403" y2="625.3403"/><text fill="#000000" font-family="Verdana" font-size="13" lengthAdjust="spacing" textLength="83.1099" x="676.4233" y="620.6108">GET forecast</text></g><g class="message" data-entity-1="part6" data-entity-2="part5" id="msg17"><polygon fill="#000000" points="680.4233,651.1396,670.4233,655.1396,680.4233,659.1396,676.4233,655.1396" style="stroke:#000000;stroke-width:1;"/><line style="stroke:#000000;stroke-width:1;stroke-dasharray:2,2;" x1="674.4233" x2="798.2144" y1="655.1396" y2="655.1396"/><text fill="#000000" font-family="Verdana" font-size="13" lengthAdjust="spacing" textLength="93.3042" x="686.4233" y="650.4102">7-day payload</text></g><g class="message" data-entity-1="part5" data-entity-2="part2" id="msg18"><polygon fill="#000000" points="260.4404,680.939,250.4404,684.939,260.4404,688.939,256.4404,684.939" style="stroke:#000000;stroke-width:1;"/><line style="stroke:#000000;stroke-width:1;stroke-dasharray:2,2;" x1="254.4404" x2="668.4233" y1="684.939" y2="684.939"/><text fill="#000000" font-family="Verdana" font-size="13" lengthAdjust="spacing" textLength="80.793" x="266.4404" y="680.2095">raw forecast</text></g><g class="message" data-entity-1="part2" data-entity-2="part4" id="msg19"><polygon fill="#000000" points="551.5786,710.7383,561.5786,714.7383,551.5786,718.7383,555.5786,714.7383" style="stroke:#000000;stroke-width:1;"/><line style="stroke:#000000;stroke-width:1;" x1="249.4404" x2="557.5786" y1="714.7383" y2="714.7383"/><text fill="#000000" font-family="Verdana" font-size="13" lengthAdjust="spacing" textLength="128.9336" x="256.4404" y="710.0088">upsertForecastDays</text></g><g class="message" data-entity-1="part4" data-entity-2="part8" id="msg20"><polygon fill="#000000" points="979.8008,740.5376,989.8008,744.5376,979.8008,748.5376,983.8008,744.5376" style="stroke:#000000;stroke-width:1;"/><line style="stroke:#000000;stroke-width:1;" x1="563.5786" x2="985.8008" y1="744.5376" y2="744.5376"/><text fill="#000000" font-family="Verdana" font-size="13" lengthAdjust="spacing" textLength="237.231" x="570.5786" y="739.8081">UPSERT (location_id, forecast_date)</text></g><g class="message" data-entity-1="part2" data-entity-2="part7" id="msg21"><polygon fill="#000000" points="896.9351,770.3369,906.9351,774.3369,896.9351,778.3369,900.9351,774.3369" style="stroke:#000000;stroke-width:1;"/><line style="stroke:#000000;stroke-width:1;" x1="249.4404" x2="902.9351" y1="774.3369" y2="774.3369"/><text fill="#000000" font-family="Verdana" font-size="13" lengthAdjust="spacing" textLength="76.7432" x="256.4404" y="769.6074">scoreAll(...)</text></g><g class="message" data-entity-1="part7" data-entity-2="part2" id="msg22"><polygon fill="#000000" points="260.4404,800.1362,250.4404,804.1362,260.4404,808.1362,256.4404,804.1362" style="stroke:#000000;stroke-width:1;"/><line style="stroke:#000000;stroke-width:1;stroke-dasharray:2,2;" x1="254.4404" x2="907.9351" y1="804.1362" y2="804.1362"/><text fill="#000000" font-family="Verdana" font-size="13" lengthAdjust="spacing" textLength="55.9419" x="266.4404" y="799.4067">rankings</text></g><g class="message" data-entity-1="part2" data-entity-2="part1" id="msg23"><polygon fill="#000000" points="44.0874,845.7349,34.0874,849.7349,44.0874,853.7349,40.0874,849.7349" style="stroke:#000000;stroke-width:1;"/><line style="stroke:#000000;stroke-width:1;stroke-dasharray:2,2;" x1="38.0874" x2="248.4404" y1="849.7349" y2="849.7349"/><text fill="#000000" font-family="Verdana" font-size="13" lengthAdjust="spacing" textLength="138.0996" x="50.0874" y="829.2061">rankings + freshness</text><text fill="#000000" font-family="Verdana" font-size="13" lengthAdjust="spacing" textLength="192.353" x="50.0874" y="845.0054">(+ alternatives if ambiguous)</text></g><?plantuml-src RP91Rjim44NtFCNKAmc9l4c00aLH870T8u23E7QogWjZJ8rj8ZAfYfGBxNg8dh0dwOWoPLdGIWJ_dp-Sf_da3dGao3DKMZZbCe8L_If9Iu9_V_x2n6HfOXqM3Z8ZqIcZ8NfS9k_tiH0edIbWaYdIJkJiKLBbg1sCPWNcXzVvMZyidaQ05cQlyvw3Z3Ifqlj69dCjhpYPlEHFr-9BJZfv9aTchQNlxfqlpqDFkPZFfbuZoV55qwa-YXGTRj4IZ1R6kdr1rekBcH1DF2JVwd7W2p2deWAce4xALKlK7pnFfF58iQWTjP4C6pd4P2SA4j-nv0TZSUz944YK1sBAvgFCHIEoQp5ZosewdqxUWdFZdOALf1DpLDQ6w43YadvktGhUnF9i6cBvwIpxo4wvH9qgHaAsKzlEjINhu0OmSrHeNeuJsVvqPMw9boSCUTEkKM_4zyLgkdmJWTi5ZdlaaqJhlcDber3zbCQ3Z8QeGAGDxCufK96BspQTINVav27qYZ9qj_nK7Q_r3wUEP4e7spBbvy1NkBC_Xqc69WCWFoSfLf1ZbHbCUopzCXNu-rBVez10x88Of0SjderARzkqJVt_setqMyubjlu-P5aq7e-PfR_jliOlissg-BeT92ZyAtUyrmTDrgvrTBq5e7Q0nwtQbwQqiVWF?></g></svg>